<?xml version="1.0" encoding="UTF-8" standalone="no"?>
<!-- Created with Inkscape (http://www.inkscape.org/) -->

<svg
   width="313.7691mm"
   height="42.348701mm"
   viewBox="0 0 313.76913 42.34871"
   version="1.1"
   id="svg1"
   xml:space="preserve"
   inkscape:version="1.4.2 (f4327f4, 2025-05-13)"
   sodipodi:docname="CavePaint2.svg"
   xmlns:inkscape="http://www.inkscape.org/namespaces/inkscape"
   xmlns:sodipodi="http://sodipodi.sourceforge.net/DTD/sodipodi-0.dtd"
   xmlns="http://www.w3.org/2000/svg"
   xmlns:svg="http://www.w3.org/2000/svg"><sodipodi:namedview
     id="namedview1"
     pagecolor="#ffffff"
     bordercolor="#000000"
     borderopacity="0.25"
     inkscape:showpageshadow="2"
     inkscape:pageopacity="0.0"
     inkscape:pagecheckerboard="0"
     inkscape:deskcolor="#d1d1d1"
     inkscape:document-units="mm"
     showgrid="true"
     showguides="false"
     inkscape:zoom="0.98646753"
     inkscape:cx="327.93781"
     inkscape:cy="-155.60573"
     inkscape:window-width="1920"
     inkscape:window-height="1001"
     inkscape:window-x="-9"
     inkscape:window-y="-9"
     inkscape:window-maximized="1"
     inkscape:current-layer="layer1"><sodipodi:guide
       position="34.641016,192.19397"
       orientation="0,522.71998"
       id="guide2"
       inkscape:locked="false" /><sodipodi:guide
       position="172.94402,192.19397"
       orientation="378.23999,0"
       id="guide3"
       inkscape:locked="false" /><sodipodi:guide
       position="172.94402,92.117977"
       orientation="0,-522.71998"
       id="guide4"
       inkscape:locked="false" /><sodipodi:guide
       position="34.641016,92.117977"
       orientation="-378.23999,0"
       id="guide5"
       inkscape:locked="false" /><sodipodi:guide
       position="34.641016,192.19397"
       orientation="0,522.71998"
       id="guide6"
       inkscape:locked="false" /><sodipodi:guide
       position="172.94402,192.19397"
       orientation="378.23999,0"
       id="guide7"
       inkscape:locked="false" /><sodipodi:guide
       position="172.94402,92.117977"
       orientation="0,-522.71998"
       id="guide8"
       inkscape:locked="false" /><sodipodi:guide
       position="34.641016,92.117977"
       orientation="-378.23999,0"
       id="guide9"
       inkscape:locked="false" /><inkscape:grid
       type="axonomgrid"
       id="grid9"
       units="mm"
       originx="35.641014"
       originy="-88.845298"
       spacingx="0.99999998"
       spacingy="4"
       empcolor="#0099e5"
       empopacity="0.30196078"
       color="#0099e5"
       opacity="0.14901961"
       empspacing="5"
       dotted="false"
       gridanglex="30"
       gridanglez="30"
       enabled="true"
       visible="true" /></sodipodi:namedview><defs
     id="defs1"><clipPath
       clipPathUnits="userSpaceOnUse"
       id="clipPath27"><rect
         style="fill:none;stroke:#000000;stroke-width:0.999999;stroke-linecap:butt;stroke-linejoin:bevel;paint-order:stroke markers fill;stop-color:#000000"
         id="rect28-6"
         width="46.160622"
         height="39.922417"
         x="86.574379"
         y="420.06253" /></clipPath><clipPath
       clipPathUnits="userSpaceOnUse"
       id="clipPath5"><path
         id="path5"
         style="stroke-width:0.1;stroke-linecap:square;paint-order:markers fill stroke;stop-color:#000000"
         d="M 438.25066,553.76374 H 1298.1212 V 755.15928 H 438.25066 Z"
         sodipodi:nodetypes="ccccc" /></clipPath></defs><g
     inkscape:label="Layer 1"
     inkscape:groupmode="layer"
     id="layer1"
     transform="translate(33.949188,-90.456062)"><path
       sodipodi:type="star"
       style="fill:#ffffff;fill-opacity:0;stroke:#000000;stroke-width:2;stroke-dasharray:none;stroke-dashoffset:0;stroke-opacity:1"
       id="path10-2-7-54-9"
       inkscape:flatsided="true"
       sodipodi:sides="6"
       sodipodi:cx="19.012333"
       sodipodi:cy="51.610779"
       sodipodi:r1="19.999998"
       sodipodi:r2="17.320507"
       sodipodi:arg1="-1.5707963"
       sodipodi:arg2="-1.0471976"
       inkscape:rounded="0"
       inkscape:randomized="0"
       d="m 19.012333,31.610781 17.320507,9.999999 -10e-7,19.999998 -17.320507,9.999999 -17.3205058,-10 6e-7,-19.999998 z"
       transform="translate(-34.641014,59.999982)" /><path
       sodipodi:type="star"
       style="fill:#ffffff;fill-opacity:0;stroke:#000000;stroke-width:2;stroke-dasharray:6, 6;stroke-dashoffset:0;stroke-opacity:1"
       id="path10-2-7-54-8-8"
       inkscape:flatsided="true"
       sodipodi:sides="6"
       sodipodi:cx="19.012333"
       sodipodi:cy="51.610779"
       sodipodi:r1="19.999998"
       sodipodi:r2="17.320507"
       sodipodi:arg1="-1.5707963"
       sodipodi:arg2="-1.0471976"
       inkscape:rounded="0"
       inkscape:randomized="0"
       d="m 19.012333,31.610781 17.320507,9.999999 -10e-7,19.999998 -17.320507,9.999999 -17.3205058,-10 6e-7,-19.999998 z"
       transform="matrix(-1,0,0,1,37.93816,60.24342)" /><path
       sodipodi:type="star"
       style="fill:#ffffff;fill-opacity:0;stroke:#000000;stroke-width:2;stroke-dasharray:6, 6;stroke-dashoffset:0;stroke-opacity:1"
       id="path10-2-7-54-7"
       inkscape:flatsided="true"
       sodipodi:sides="6"
       sodipodi:cx="19.012333"
       sodipodi:cy="51.610779"
       sodipodi:r1="19.999998"
       sodipodi:r2="17.320507"
       sodipodi:arg1="-1.5707963"
       sodipodi:arg2="-1.0471976"
       inkscape:rounded="0"
       inkscape:randomized="0"
       d="m 19.012333,31.610781 17.320507,9.999999 -10e-7,19.999998 -17.320507,9.999999 -17.3205058,-10 6e-7,-19.999998 z"
       transform="translate(34.641007,59.999985)" /><path
       sodipodi:type="star"
       style="fill:#ffffff;fill-opacity:0;stroke:#000000;stroke-width:2;stroke-dasharray:6, 6;stroke-dashoffset:0;stroke-opacity:1"
       id="path10-2-7-54-8-83"
       inkscape:flatsided="true"
       sodipodi:sides="6"
       sodipodi:cx="19.012333"
       sodipodi:cy="51.610779"
       sodipodi:r1="19.999998"
       sodipodi:r2="17.320507"
       sodipodi:arg1="-1.5707963"
       sodipodi:arg2="-1.0471976"
       inkscape:rounded="0"
       inkscape:randomized="0"
       d="m 19.012333,31.610781 17.320507,9.999999 -10e-7,19.999998 -17.320507,9.999999 -17.3205058,-10 6e-7,-19.999998 z"
       transform="matrix(-1,0,0,1,107.22019,60.243423)" /><path
       sodipodi:type="star"
       style="fill:#ffffff;fill-opacity:0;stroke:#000000;stroke-width:2;stroke-dasharray:6, 6;stroke-dashoffset:0;stroke-opacity:1"
       id="path10-2-7-54-8-8-6"
       inkscape:flatsided="true"
       sodipodi:sides="6"
       sodipodi:cx="19.012333"
       sodipodi:cy="51.610779"
       sodipodi:r1="19.999998"
       sodipodi:r2="17.320507"
       sodipodi:arg1="-1.5707963"
       sodipodi:arg2="-1.0471976"
       inkscape:rounded="0"
       inkscape:randomized="0"
       d="m 19.012333,31.610781 17.320507,9.999999 -10e-7,19.999998 -17.320507,9.999999 -17.3205058,-10 6e-7,-19.999998 z"
       transform="matrix(-1,0,0,1,176.50235,60.039284)" /><path
       sodipodi:type="star"
       style="fill:#ffffff;fill-opacity:0;stroke:#000000;stroke-width:2;stroke-dasharray:6, 6;stroke-dashoffset:0;stroke-opacity:1"
       id="path10-2-7-54-7-5"
       inkscape:flatsided="true"
       sodipodi:sides="6"
       sodipodi:cx="19.012333"
       sodipodi:cy="51.610779"
       sodipodi:r1="19.999998"
       sodipodi:r2="17.320507"
       sodipodi:arg1="-1.5707963"
       sodipodi:arg2="-1.0471976"
       inkscape:rounded="0"
       inkscape:randomized="0"
       d="m 19.012333,31.610781 17.320507,9.999999 -10e-7,19.999998 -17.320507,9.999999 -17.3205058,-10 6e-7,-19.999998 z"
       transform="translate(173.2052,59.795849)" /><path
       sodipodi:type="star"
       style="fill:#ffffff;fill-opacity:0;stroke:#000000;stroke-width:2;stroke-dasharray:6, 6;stroke-dashoffset:0;stroke-opacity:1"
       id="path10-2-7-54-8-83-1"
       inkscape:flatsided="true"
       sodipodi:sides="6"
       sodipodi:cx="19.012333"
       sodipodi:cy="51.610779"
       sodipodi:r1="19.999998"
       sodipodi:r2="17.320507"
       sodipodi:arg1="-1.5707963"
       sodipodi:arg2="-1.0471976"
       inkscape:rounded="0"
       inkscape:randomized="0"
       d="m 19.012333,31.610781 17.320507,9.999999 -10e-7,19.999998 -17.320507,9.999999 -17.3205058,-10 6e-7,-19.999998 z"
       transform="matrix(-1,0,0,1,245.78438,60.039287)" /><path
       sodipodi:type="star"
       style="fill:#ffffff;fill-opacity:0;stroke:#000000;stroke-width:2;stroke-dasharray:none;stroke-dashoffset:0;stroke-opacity:1"
       id="path10-2-7-54-8-83-0"
       inkscape:flatsided="true"
       sodipodi:sides="6"
       sodipodi:cx="19.012333"
       sodipodi:cy="51.610779"
       sodipodi:r1="19.999998"
       sodipodi:r2="17.320507"
       sodipodi:arg1="-1.5707963"
       sodipodi:arg2="-1.0471976"
       inkscape:rounded="0"
       inkscape:randomized="0"
       d="m 19.012333,31.610781 17.320507,9.999999 -10e-7,19.999998 -17.320507,9.999999 -17.3205058,-10 6e-7,-19.999998 z"
       transform="matrix(-1,0,0,1,141.86134,60.039285)" /><path
       style="fill:#000000;fill-opacity:1;stroke:#000000;stroke-width:0.899999;stroke-linecap:round;stroke-dasharray:none;stroke-dashoffset:0;stroke-opacity:1"
       id="path36"
       d="m -10.245969,104.19612 c -0.570505,-0.34325 -1.215143,-0.5067 -1.835124,-0.72979 -0.463635,-0.1738 -0.948844,-0.24936 -1.441034,-0.26805 -0.684519,-0.0685 -1.225038,0.075 -1.865988,0.30215 -0.678541,0.29464 -1.315463,0.65562 -1.902994,1.10406 -0.48927,0.40348 -0.932819,0.86035 -1.292054,1.38304 -0.06693,0.12666 -0.131737,0.25447 -0.200786,0.37998 -0.134216,0.24398 -0.292356,0.48832 -0.40465,0.74415 -0.199029,0.45343 -0.298546,0.92072 -0.387962,1.4045 -0.05677,0.66124 -0.182958,1.33156 -0.165462,1.99805 0.01083,0.41261 0.05914,0.53815 0.148499,0.93668 0.19333,0.63689 0.452146,1.27893 0.906939,1.77945 0.104666,0.11519 0.225121,0.21498 0.337682,0.32247 1.476838,1.056 0.799368,0.59115 4.10115,2.38601 0.142357,0.0774 0.306384,0.10557 0.459845,0.15757 0.459429,0.15568 0.918161,0.3128 1.379804,0.46178 0.849595,0.20763 1.69252,0.42241 2.4909654,0.78401 1.1722129,0.73434 3.041932,1.73313 -2.5623454,-1.45562 -0.07345,-0.0418 0.14141,0.0926 0.210822,0.14083 0.130946,0.091 0.258495,0.1867 0.388003,0.27968 0.49261,0.45032 0.718131,1.13617 0.936076,1.75243 0.180887,0.52115 0.241036,1.06767 0.268364,1.61507 0.02109,0.31753 0.03504,0.6299 -0.307138,0.73916 -0.178513,0.026 -0.358557,0.0348 -0.538494,0.0436 0,0 3.2148041,2.28823 3.2148041,2.28823 v 0 c 0.2210773,-0.0315 0.4407857,-0.0596 0.6403742,-0.16924 0.3853465,-0.27465 0.5555107,-0.65188 0.5093938,-1.12952 -0.025585,-0.58214 -0.075872,-1.16809 -0.2487877,-1.7277 -0.118068,-0.36325 -0.2538556,-0.70572 -0.4043413,-1.0563 -0.00533,-0.0124 -0.2545744,-0.62673 -0.2703997,-0.65736 -0.041344,-0.08 -0.098891,-0.15063 -0.1483362,-0.22595 -0.1744004,-0.16502 -0.3812969,-0.34309 -0.5882717,-0.46637 -1.3259855,-0.78981 -2.7197365,-1.70607 -4.1595415,-2.38366 -0.815802,-0.30896 -1.6626,-0.50896 -2.499276,-0.75192 -0.455335,-0.15042 -0.915331,-0.29632 -1.361189,-0.4735 -0.150087,-0.0596 -0.582333,-0.27679 -0.444775,-0.19216 0.505532,0.311 4.24191,2.48427 2.538043,1.49289 -0.116536,-0.0807 -0.243184,-0.14842 -0.349606,-0.24204 -0.09106,-0.0801 -0.161377,-0.18118 -0.238204,-0.27503 -0.336839,-0.41145 -0.589523,-0.85458 -0.757479,-1.36136 -0.08374,-0.28438 -0.175148,-0.53791 -0.197269,-0.83655 -0.04799,-0.64782 0.07861,-1.31011 0.128382,-1.95296 0.163228,-0.89242 0.427525,-1.60798 0.951834,-2.35711 0.352935,-0.47823 0.753797,-0.92182 1.230736,-1.28029 0.556406,-0.417 1.158084,-0.76761 1.814131,-1.00549 0.60941,-0.17698 1.179125,-0.2345 1.810818,-0.15279 0.4666799,0.0576 0.9213838,0.16653 1.3622347,0.33288 0.6368193,0.21021 1.2496628,0.46742 1.8461511,0.77481 z" /><path
       style="fill:#000000;fill-opacity:1;stroke:#000000;stroke-width:0.899999;stroke-linecap:round;stroke-dasharray:none;stroke-dashoffset:0;stroke-opacity:1"
       id="path37"
       d="m -21.299295,111.19889 c 0.02656,0.54741 -0.18141,1.05299 -0.359985,1.55895 -0.182112,0.41981 -0.51583,0.74742 -0.857338,1.04213 -0.500969,0.3069 -0.968608,0.67195 -1.482057,0.95774 -0.347365,0.23811 -0.752512,0.36356 -1.121197,0.55652 -0.381599,0.21505 -0.620038,0.55854 -0.824487,0.93393 -0.186699,0.37284 -0.240909,0.78334 -0.271139,1.19358 -0.02,0.38378 -0.01622,0.76827 -0.01493,1.15242 0,0 3.521406,1.79249 3.521406,1.79249 v 0 c -0.0017,-0.37685 -0.0059,-0.75379 0.0036,-1.13056 0.01495,-0.35451 0.03552,-0.71494 0.187145,-1.04216 0.167919,-0.31151 0.365267,-0.5766 0.699121,-0.72425 0.387279,-0.17534 0.768971,-0.36289 1.126648,-0.59437 0.507611,-0.33036 1.0053,-0.67755 1.506256,-1.01718 0.401304,-0.33634 0.760655,-0.72591 0.961893,-1.2174 0.19982,-0.54117 0.398413,-1.08654 0.452915,-1.66434 z" /><path
       style="fill:#000000;fill-opacity:1;stroke:#000000;stroke-width:0.899999;stroke-linecap:round;stroke-dasharray:none;stroke-dashoffset:0;stroke-opacity:1"
       id="path38"
       d="m 115.20821,103.84498 c -0.66325,0.20958 -1.2075,0.6446 -1.72516,1.09367 -0.35111,0.33093 -0.63881,0.67699 -0.79198,1.13731 -0.0978,0.37163 -0.0968,0.75805 -0.0987,1.13948 -0.0209,0.33606 0.11975,0.62193 0.24442,0.92087 0.0661,0.20114 0.0287,0.10186 0.11256,0.29777 0,0 3.64114,1.57 3.64114,1.57 v 0 c -0.13528,-0.0957 -0.078,-0.0359 -0.16907,-0.18184 -0.0739,-0.29225 -0.24602,-0.51903 -0.30788,-0.81235 -0.001,-0.34562 -0.0105,-0.69454 0.0475,-1.03653 0.10175,-0.39512 0.3639,-0.67979 0.64815,-0.96422 0.48469,-0.4218 1.00495,-0.80344 1.65225,-0.92018 z" /><path
       style="fill:#000000;fill-opacity:1;stroke:#000000;stroke-width:0.899999;stroke-linecap:round;stroke-dasharray:none;stroke-dashoffset:0;stroke-opacity:1"
       id="path39"
       d="m 127.16236,107.54933 c 0.50451,-0.43087 1.18455,-0.46337 1.81629,-0.4467 0.35349,0.0529 0.7399,-0.008 1.08165,0.11768 0.12441,0.0457 0.2353,0.12204 0.35407,0.18083 1.19712,0.8088 0.007,-0.001 -3.07334,-1.75361 -0.0463,-0.0263 0.0894,0.0586 0.12856,0.0947 0.10891,0.10041 0.20506,0.23145 0.29263,0.35041 0.10348,0.26967 0.33732,0.44057 0.46229,0.69565 0.0592,0.18752 0.0341,0.0906 0.0741,0.29115 0,0 3.55018,1.74767 3.55018,1.74767 v 0 c -0.0207,-0.23738 -0.007,-0.11972 -0.0395,-0.35299 -0.0875,-0.41545 -0.15959,-0.46488 -0.43548,-0.75819 -0.0694,-0.17918 -0.1494,-0.28426 -0.25957,-0.4368 -0.038,-0.0527 -0.0462,-0.13226 -0.10137,-0.16654 -3.0664,-1.90396 -2.28491,-1.57014 -3.70118,-2.15702 -0.48245,-0.16277 -0.99896,-0.14274 -1.50259,-0.14788 -0.72407,0.0413 -1.44984,0.19786 -2.0223,0.67314 z" /><path
       style="fill:#000000;fill-opacity:1;stroke:#000000;stroke-width:0.899999;stroke-linecap:round;stroke-dasharray:none;stroke-dashoffset:0;stroke-opacity:1"
       id="path40"
       d="m 121.42506,119.03105 c -0.0418,-0.96584 -0.0364,-1.93315 -0.0234,-2.89959 -0.0162,-1.07359 0.008,-1.21758 0.85434,-1.90255 0.96263,-0.6321 2.05588,-1.01566 3.17759,-1.24659 0.9421,-0.0392 1.79289,0.37434 2.58523,0.841 -5.94568,-3.2441 -3.20912,-2.19684 -2.38026,-1.1233 0.20869,0.2703 0.25616,0.38694 0.42357,0.69241 0.36339,0.83663 0.65738,1.70209 0.90634,2.57907 -0.006,0.10401 0.22255,0.54271 0.0518,0.64753 -0.0999,0.0613 -0.62465,0.0101 -0.71174,0.008 -0.75983,-0.0446 -1.5188,-0.0967 -2.27964,-0.12255 -0.66029,-0.0195 -1.321,-0.0255 -1.98156,-0.032 -0.5533,-0.0251 -1.10023,0.0114 -1.6387,0.14143 -0.44254,0.11085 -0.88882,0.17104 -1.32434,0.30486 -0.21538,0.0536 -0.10779,0.0306 -0.3227,0.0692 0,0 3.251,2.2554 3.251,2.2554 v 0 c 0.2261,-0.0589 0.11389,-0.0278 0.33664,-0.0933 0.42159,-0.11998 0.85901,-0.17845 1.28303,-0.29033 0.52944,-0.0831 1.05935,-0.0871 1.59443,-0.0755 0.65073,-0.002 1.30149,0.001 1.95183,0.0271 0.76497,0.0329 1.52871,0.0962 2.29455,0.10358 0.13274,-0.009 0.26734,-0.003 0.39821,-0.0264 0.70979,-0.12954 0.81273,-0.63905 0.61972,-1.24447 -0.25988,-0.8936 -0.57235,-1.77015 -0.88785,-2.64527 -0.146,-0.3373 -0.29915,-0.72174 -0.52725,-1.01626 -0.0628,-0.081 -0.14705,-0.14281 -0.21904,-0.21574 -1.28754,-1.30436 0.74821,0.33205 -3.87071,-2.38619 -0.86582,-0.4323 -1.77319,-0.77755 -2.75838,-0.6126 -1.13704,0.31821 -2.23705,0.77307 -3.23571,1.40844 -0.93662,0.72614 -1.12131,1.00933 -1.05066,2.19214 0.0127,0.95847 0.0191,1.91789 -0.0234,2.87573 z" /><path
       style="fill:#000000;fill-opacity:1;stroke:#000000;stroke-width:0.899999;stroke-linecap:round;stroke-dasharray:none;stroke-dashoffset:0;stroke-opacity:1"
       id="path46"
       d="m -15.940408,107.12235 c 0.41363,0.37049 0.757163,0.81025 1.17935,1.17059 0.30482,0.21908 0.615257,0.42807 0.916638,0.65201 0.206437,0.12053 0.385469,0.28734 0.592211,0.40688 1.202019,0.69498 2.409961,1.37966 3.6163494,2.06703 0.084126,0.0479 0.3390366,0.18717 0.2551438,0.13883 -1.0417332,-0.60026 -2.0858232,-1.19642 -3.1287342,-1.79463 1.464012,0.87529 2.8403601,2.2103 4.5830736,2.37997 0.4265745,0.0214 0.8543092,0.0144 1.2813467,0.0127 0.3969147,-0.002 0.7938346,-0.003 1.1907546,-0.004 0,0 -3.196953,-2.32144 -3.196953,-2.32144 v 0 c -0.3954563,0.002 -0.7909036,0.005 -1.1863588,0.006 -0.4161681,-2.1e-4 -0.8361601,0.007 -1.2471121,-0.0688 -0.18552,-0.0447 -0.358543,-0.096 -0.530158,-0.18176 -0.06186,-0.0309 -0.241531,-0.13483 -0.181774,-0.10002 3.3650209,1.96048 4.1886259,2.48326 2.9491795,1.70202 -1.1971255,-0.69718 -2.3923825,-1.39757 -3.5913765,-2.09152 -0.08487,-0.0491 -0.344717,-0.18703 -0.260029,-0.13759 1.037731,0.60583 2.082388,1.19976 3.1193643,1.80689 0.138249,0.0809 -0.2791288,-0.15871 -0.4084995,-0.2532 -0.05995,-0.0438 -0.1218718,-0.0848 -0.1828068,-0.1272 -0.322078,-0.19844 -0.603956,-0.44867 -0.924475,-0.64889 -0.483009,-0.27275 -0.803512,-0.70918 -1.187559,-1.09965 z" /><path
       style="fill:#000000;fill-opacity:1;stroke:#000000;stroke-width:0.899999;stroke-linecap:round;stroke-dasharray:none;stroke-dashoffset:0;stroke-opacity:1"
       id="path47"
       d="m -19.778544,105.65453 c -0.625376,-0.0103 -1.243362,0.0363 -1.858589,0.14789 -0.656524,0.12341 -1.321537,0.1892 -1.988101,0.22336 -0.292341,-0.0119 -0.59352,0.0453 -0.885407,0.0144 -0.125493,-0.0133 -0.246434,-0.0545 -0.369948,-0.0804 -0.182881,-0.0744 -0.363421,-0.13753 -0.53881,-0.22878 -0.06742,-0.0351 -0.267639,-0.14407 -0.201738,-0.10622 3.392649,1.94862 4.198949,2.47155 2.984943,1.69143 -0.305324,-0.19436 -0.583291,-0.4158 -0.853594,-0.65503 0,0 -3.674638,-1.45679 -3.674638,-1.45679 v 0 c 0.316985,0.18941 0.522977,0.5051 0.867318,0.6566 1.301939,1.11983 2.885302,2.08594 4.574772,2.47119 0.430038,0.0493 0.863388,0.0104 1.293989,-0.0182 0.665751,-0.0607 1.327442,-0.15471 1.987084,-0.26291 0.62018,-0.0768 1.241234,-0.10192 1.865895,-0.0692 z" /><path
       style="fill:#000000;fill-opacity:1;stroke:#000000;stroke-width:0.899999;stroke-linecap:round;stroke-dasharray:none;stroke-dashoffset:0;stroke-opacity:1"
       id="path48"
       d="m -4.3809981,104.59315 c -1.5496593,-1.22865 -3.2760639,-2.38483 -5.2208165,-2.82183 -0.4738084,-0.0958 -0.9574674,-0.10493 -1.4388994,-0.10613 -0.480788,0.0778 -0.645783,0.55076 -0.724838,0.97266 -0.06361,0.4233 -0.06476,0.84463 0.08928,1.24682 0.830624,1.36113 3.2853488,2.2094 4.1611588,2.70646 0.059236,0.01 0.1203463,0.0123 0.1777079,0.0301 0.049821,0.0155 0.093681,0.046 0.1405203,0.069 0.049197,0.0173 0.09752,0.0374 0.1475898,0.052 0.1778371,0.0519 0.3622305,0.0572 0.5456555,0.0722 0.2586408,0.0122 0.5468911,0.0506 0.7952423,-0.0524 0.1329743,-0.0552 0.2469329,-0.14811 0.3714564,-0.22037 0.349168,-0.25251 0.559226,-0.62049 0.7011009,-1.01854 0.080917,-0.25733 0.1054735,-0.52554 0.1257406,-0.79289 0,0 -3.5098707,-1.815 -3.5098707,-1.815 v 0 c -0.010165,0.23504 -0.020212,0.47159 -0.077489,0.70101 -0.095558,0.31138 -0.2524516,0.59686 -0.5456213,0.76191 -0.3294827,0.15778 -0.6683195,0.13398 -1.0233528,0.0708 -0.3276899,-0.0657 -0.6418897,-0.18911 -0.9493597,-0.31614 1.0804208,0.62549 2.1643123,1.24502 3.2412639,1.87646 0.048024,0.0282 -0.1046375,-0.0392 -0.1534322,-0.066 -0.2019395,-0.11094 -0.357827,-0.30366 -0.5342636,-0.44735 -0.2508244,-0.28877 -0.2633652,-0.63892 -0.2158338,-1.00858 0.043996,-0.32253 0.052229,-0.52181 0.4284263,-0.49682 0.4576196,0.0118 0.916251,0.0429 1.3599017,0.16504 0.2508064,0.0746 0.3554941,0.0983 0.6012127,0.2033 0.1091353,0.0466 0.4233994,0.21391 0.3213788,0.15326 -5.3520148,-3.1816 -3.6283458,-2.1135 -2.463849,-1.43081 z" /><path
       sodipodi:type="star"
       style="fill:#ffffff;fill-opacity:0;stroke:#000000;stroke-width:2;stroke-dasharray:none;stroke-dashoffset:0;stroke-opacity:1"
       id="path10-2-7-54-6"
       inkscape:flatsided="true"
       sodipodi:sides="6"
       sodipodi:cx="19.012333"
       sodipodi:cy="51.610779"
       sodipodi:r1="19.999998"
       sodipodi:r2="17.320507"
       sodipodi:arg1="-1.5707963"
       sodipodi:arg2="-1.0471976"
       inkscape:rounded="0"
       inkscape:randomized="0"
       d="m 19.012333,31.610781 17.320507,9.999999 -10e-7,19.999998 -17.320507,9.999999 -17.3205058,-10 6e-7,-19.999998 z"
       transform="translate(242.48707,59.999983)" /><path
       style="fill:#000000;fill-opacity:1;stroke:#000000;stroke-width:0.899999;stroke-linecap:round;stroke-dasharray:none;stroke-dashoffset:0;stroke-opacity:1"
       id="path56"
       d="m 260.8026,125.60842 c -0.0293,-0.50378 0.1917,-0.92658 0.43232,-1.35086 0.22329,-0.39185 0.58875,-0.62811 0.91773,-0.91678 0.29443,-0.22483 0.55896,-0.48777 0.865,-0.69789 0.42031,-0.18417 0.69975,-0.54657 0.96876,-0.90277 0.33153,-0.45678 0.71044,-0.87995 0.96383,-1.38715 0.18082,-0.41096 0.21022,-0.85579 0.19791,-1.29842 -0.0573,-0.44706 -0.23852,-0.87325 -0.53206,-1.21488 -1.17817,-0.68312 -2.35618,-1.36653 -3.53451,-2.04937 -0.0936,-0.0542 -0.38633,-0.19399 -0.2928,-0.1397 1.08628,0.63056 4.31287,2.57201 3.27137,1.86995 -2.56715,-1.73049 -2.26542,-1.61984 -3.65619,-2.08026 -0.15579,-0.061 -0.33237,-0.0292 -0.49105,-0.066 -0.13234,-0.0307 -0.27936,-0.15287 -0.43818,-0.20972 -0.30425,-0.26754 -0.70888,-0.25871 -1.06618,-0.38776 -0.42879,-0.21016 -0.90022,-0.30334 -1.34173,-0.49123 -0.44591,-0.14158 -0.8855,-0.30437 -1.29458,-0.53377 -0.0967,-0.0542 -0.38042,-0.22768 -0.28414,-0.17275 1.02942,0.5873 2.05578,1.17995 3.08367,1.76993 -0.46327,-0.29323 -0.81068,-0.72062 -1.16377,-1.13179 -0.2678,-0.35648 -0.51121,-0.72923 -0.72858,-1.11833 -0.22974,-0.3348 -0.3639,-0.71435 -0.47534,-1.10131 -0.1032,-0.385 -0.12827,-0.78313 -0.14272,-1.17953 -0.009,-0.37981 -0.007,-0.75978 -0.006,-1.13967 -0.0256,-0.40041 0.0123,-0.7908 0.0718,-1.18547 0.12696,-0.41384 0.33506,-0.79809 0.51711,-1.19006 0.19331,-0.30604 0.41519,-0.59625 0.70906,-0.81094 0.23615,-0.23492 0.54898,-0.35277 0.82482,-0.52854 0.29657,-0.26919 0.66875,-0.33972 1.05275,-0.38931 0.34219,-0.0667 0.6498,-0.22238 0.97912,-0.32468 0.0474,-0.01 0.0966,-0.014 0.14231,-0.03 0.32749,-0.11459 -0.0196,-0.0327 0.28526,-0.12696 0.16218,-0.0501 0.33856,-0.0637 0.50611,-0.083 0.37498,-0.0922 0.74136,-0.22491 1.09069,-0.38987 0.33569,-0.20714 0.59074,-0.48985 0.8459,-0.78324 0.31076,-0.29685 0.49722,-0.68245 0.70487,-1.05141 0.23812,-0.42047 0.32746,-0.89757 0.38699,-1.37112 0.0301,-0.27537 0.0367,-0.55236 0.0422,-0.82906 0,0 -3.51701,-1.797214 -3.51701,-1.797214 v 0 c -10e-4,0.26622 -0.002,0.532669 -0.0201,0.798409 -0.0366,0.422675 -0.0926,0.851625 -0.3102,1.224755 -0.20421,0.34241 -0.36057,0.7132 -0.66778,0.98213 -0.22131,0.24645 -0.4461,0.49422 -0.7549,0.63373 -0.33708,0.12786 -0.66939,0.27194 -1.03218,0.31058 -0.33929,0.0657 -0.65774,0.18264 -0.98379,0.2941 -0.30236,0.11862 -0.60997,0.2207 -0.93043,0.28019 -0.41546,0.0934 -0.80002,0.23932 -1.14101,0.50137 -0.30168,0.16554 -0.60003,0.3395 -0.85102,0.57831 -0.31757,0.2766 -0.58402,0.60407 -0.79418,0.9697 -0.19892,0.42494 -0.40614,0.84683 -0.57322,1.28547 -0.0674,0.41142 -0.13245,0.81787 -0.10346,1.23726 -10e-4,0.38378 -0.003,0.76759 0.001,1.15136 0.009,0.42206 0.025,0.84588 0.10996,1.26081 0.0941,0.41675 0.20492,0.84147 0.42568,1.21071 0.25513,0.3712 0.4257,0.80021 0.72275,1.14534 0.28896,0.47578 0.73415,0.88186 1.12448,1.2753 1.77425,1.0363 3.32312,2.14407 5.2334,2.77991 0.46088,0.16244 0.92451,0.31638 1.38357,0.48171 0.37358,0.0859 0.69849,0.26076 1.04381,0.42033 0.30088,0.13642 0.63539,0.13169 0.92543,0.29735 1.02808,0.63659 -4.21696,-2.36684 -3.14172,-1.81364 1.20423,0.61956 2.34857,1.34919 3.52345,2.02274 0.0918,0.0526 0.37207,0.20184 0.28093,0.14802 -1.07291,-0.63357 -2.14953,-1.26081 -3.22429,-1.89122 0.37914,0.1781 0.54769,0.53528 0.67565,0.92049 0.0547,0.37151 0.0178,0.75765 -0.10179,1.1143 -0.21981,0.48729 -0.5768,0.89684 -0.89899,1.31864 -0.27538,0.3184 -0.55915,0.60426 -0.93733,0.80061 -0.30228,0.23141 -0.5884,0.48111 -0.8768,0.72924 -0.36743,0.31185 -0.74006,0.60709 -0.97777,1.0389 -0.26852,0.47746 -0.51465,0.9599 -0.55235,1.51649 z" /><path
       style="fill:#000000;fill-opacity:1;stroke:#000000;stroke-width:0.899999;stroke-linecap:round;stroke-dasharray:none;stroke-dashoffset:0;stroke-opacity:1"
       id="path57"
       d="m 264.80219,122.80625 c 0.57532,-0.0165 1.15104,-0.009 1.72651,-0.006 0.0809,5.3e-4 0.16187,10e-4 0.2428,10e-4 0,0 -3.18618,-2.31491 -3.18618,-2.31491 v 0 c -0.0796,5.3e-4 -0.1593,0.001 -0.23894,0.001 -0.58086,0.003 -1.16195,0.0103 -1.74267,-0.006 z" /><path
       style="fill:#000000;fill-opacity:1;stroke:#000000;stroke-width:0.899999;stroke-linecap:round;stroke-dasharray:none;stroke-dashoffset:0;stroke-opacity:1"
       id="path58"
       d="m 266.6784,118.63554 c 0.33123,-0.009 0.15551,-0.005 0.52718,-0.0106 0,0 -3.17398,-2.30603 -3.17398,-2.30603 v 0 c -0.3894,-0.006 -0.20394,-0.002 -0.55637,-0.0106 z" /><path
       style="fill:#000000;fill-opacity:1;stroke:#000000;stroke-width:0.899999;stroke-linecap:round;stroke-dasharray:none;stroke-dashoffset:0;stroke-opacity:1"
       id="path59"
       d="m 262.88881,115.936 c -0.0179,-0.362 -0.0146,-0.72461 -0.0134,-1.08692 0,0 -3.50094,-1.78382 -3.50094,-1.78382 v 0 c 0.001,0.35774 0.005,0.71582 -0.0134,1.07324 z" /><path
       style="fill:#000000;fill-opacity:1;stroke:#000000;stroke-width:0.899999;stroke-linecap:round;stroke-dasharray:none;stroke-dashoffset:0;stroke-opacity:1"
       id="path60"
       d="m 258.17501,112.09641 c 0.34374,-0.10878 0.69973,-0.16686 1.05536,-0.21974 0,0 -3.21591,-2.25581 -3.21591,-2.25581 v 0 c -0.37058,0.0691 -0.73925,0.1468 -1.10481,0.23926 z" /><path
       style="fill:#000000;fill-opacity:1;stroke:#000000;stroke-width:0.899999;stroke-linecap:round;stroke-dasharray:none;stroke-dashoffset:0;stroke-opacity:1"
       id="path61"
       d="m 256.91727,103.88519 c 0.16623,0.52961 0.42531,1.02142 0.73326,1.48106 0.15365,0.25469 0.37896,0.44505 0.59445,0.64395 0,0 3.66659,1.46981 3.66659,1.46981 v 0 c -0.23195,-0.15688 -0.44647,-0.34293 -0.64812,-0.53649 -0.29582,-0.43068 -0.6261,-0.84747 -0.77119,-1.36038 z" /><path
       style="fill:#000000;fill-opacity:1;stroke:#000000;stroke-width:0.899999;stroke-linecap:round;stroke-dasharray:none;stroke-dashoffset:0;stroke-opacity:1"
       id="path62"
       d="m 261.50423,102.2381 c 0.0722,0.0462 0.14441,0.0923 0.21661,0.13848 0,0 3.67394,1.41579 3.67394,1.41579 v 0 c -0.0682,-0.0374 -0.13636,-0.0747 -0.20454,-0.11204 z" /><path
       style="fill:#000000;fill-opacity:1;stroke:#000000;stroke-width:0.899999;stroke-linecap:round;stroke-dasharray:none;stroke-dashoffset:0;stroke-opacity:1"
       id="path63"
       d="m 258.49392,100.615 c 7.74468,4.55126 -0.0735,-0.23872 -1.0891,-0.60504 0,0 3.08122,2.44211 3.08122,2.44211 v 0 c 1.26379,0.68022 0.75775,0.41101 -2.90477,-1.69395 -0.14668,-0.0843 0.28643,0.18025 0.43288,0.26492 1.19108,0.68859 2.38198,1.37748 3.57296,2.06623 z" /><path
       style="fill:#000000;fill-opacity:1;stroke:#000000;stroke-width:0.899999;stroke-linecap:round;stroke-dasharray:none;stroke-dashoffset:0;stroke-opacity:1"
       id="path64"
       d="m 254.13185,102.89087 c -1.31629,-0.68844 -3.57621,-2.00786 2.19504,1.30023 0,0 -3.67119,-1.41381 -3.67119,-1.41381 v 0 c 1.51811,0.87369 3.01538,1.78063 4.56934,2.58784 z" /><path
       style="fill:#000000;fill-opacity:1;stroke:#000000;stroke-width:0.899999;stroke-linecap:round;stroke-dasharray:none;stroke-dashoffset:0;stroke-opacity:1"
       id="path65"
       d="m 250.83004,107.01519 c -0.54338,0.014 -1.08712,0.01 -1.63064,0.009 -0.0884,-3.4e-4 -0.17677,-7.1e-4 -0.26516,-0.001 0,0 3.18147,2.31147 3.18147,2.31147 v 0 c 0.0874,-3.4e-4 0.17482,-7.1e-4 0.26222,-0.001 0.55174,-10e-4 1.10368,-0.005 1.65528,0.009 z" /><path
       style="fill:#000000;fill-opacity:1;stroke:#000000;stroke-width:0.899999;stroke-linecap:round;stroke-dasharray:none;stroke-dashoffset:0;stroke-opacity:1"
       id="path66"
       d="m 251.55991,112.26601 c -0.0333,0.0588 -0.0666,0.1177 -0.0999,0.17655 0,0 3.40876,1.98259 3.40876,1.98259 v 0 c 0.0444,-0.0664 0.0889,-0.13282 0.13333,-0.19923 z" /><path
       style="fill:#000000;fill-opacity:1;stroke:#000000;stroke-width:0.899999;stroke-linecap:round;stroke-dasharray:none;stroke-dashoffset:0;stroke-opacity:1"
       id="path67"
       d="m 255.37825,115.02507 c 0.0147,0.27 0.0136,0.54047 0.0143,0.81075 0,0 3.49918,1.78292 3.49918,1.78292 v 0 c 7.9e-4,-0.26542 -5.3e-4,-0.53105 0.0143,-0.79617 z" /><path
       style="fill:#000000;fill-opacity:1;stroke:#000000;stroke-width:0.899999;stroke-linecap:round;stroke-dasharray:none;stroke-dashoffset:0;stroke-opacity:1"
       id="path68"
       d="m 259.72765,117.87118 c -0.3219,0.0491 -0.1541,0.0262 -0.50358,0.0676 0,0 3.20453,2.27261 3.20453,2.27261 v 0 c 0.36648,-0.041 0.18827,-0.0214 0.53459,-0.0589 z" /><path
       style="fill:#000000;fill-opacity:1;stroke:#000000;stroke-width:0.899999;stroke-linecap:round;stroke-dasharray:none;stroke-dashoffset:0;stroke-opacity:1"
       id="path69"
       d="m 255.57142,121.99795 c -0.32445,0.009 -0.15551,0.005 -0.50684,0.009 0,0 3.17867,2.30944 3.17867,2.30944 v 0 c 0.36437,0.003 0.18726,2.7e-4 0.53134,0.009 z" /><path
       style="fill:#000000;fill-opacity:1;stroke:#000000;stroke-width:0.899999;stroke-linecap:round;stroke-dasharray:none;stroke-dashoffset:0;stroke-opacity:1"
       id="path70"
       d="m 260.6478,94.632779 c -0.57082,0.260039 -0.96325,0.663987 -1.24029,1.217937 -0.20978,0.48391 -0.23781,0.99995 -0.18748,1.51733 0.0606,0.53917 0.20866,1.04526 0.61594,1.41785 2.83286,1.743284 2.63125,2.041894 4.70632,2.032494 0.3972,0.0182 0.77135,-0.007 1.13612,-0.17142 0.34196,-0.20631 0.54216,-0.54497 0.73763,-0.880415 0.21497,-0.38059 0.32741,-0.798399 0.39688,-1.226469 0.0575,-0.4005 0.0847,-0.79273 -0.053,-1.17757 -0.0374,-0.0572 -0.0659,-0.12137 -0.11234,-0.17151 -0.0468,-0.0506 -0.10373,-0.0923 -0.16358,-0.1265 -1.19489,-0.68257 -2.38863,-1.36766 -3.59881,-2.022729 -0.20913,-0.113199 -0.52367,-0.08925 -0.74252,-0.05003 -0.52011,0.247399 -0.75421,0.754429 -0.92352,1.274769 -0.0919,0.25264 -0.0467,0.12694 -0.13565,0.37711 0,0 3.45833,1.90814 3.45833,1.90814 v 0 c 0.0836,-0.25479 0.0394,-0.12341 0.13304,-0.39401 0.0994,-0.35593 0.23596,-0.81582 0.66316,-0.85907 0.2013,0.0333 0.22052,0.0284 0.42292,0.0983 0.0739,0.0255 0.28494,0.12719 0.21771,0.0873 -6.14617,-3.648715 -4.05806,-2.0749 -2.84098,-1.71908 0.28389,0.2477 0.21322,0.58853 0.18282,0.93282 -0.0459,0.3819 -0.12511,0.75833 -0.3319,1.08959 -0.14808,0.25888 -0.28931,0.53786 -0.58808,0.64311 -0.34547,0.0802 -0.69552,0.0707 -1.04885,0.0647 -1.72234,-0.0427 -2.96888,-1.14927 2.16972,1.712964 -0.53081,-0.1837 -0.70036,-0.550965 -0.78216,-1.090764 -0.0453,-0.44904 -0.0796,-0.8925 0.0912,-1.32448 0.22522,-0.48953 0.5948,-0.79399 1.10912,-0.96669 z" /><path
       style="fill:#000000;fill-opacity:1;stroke:#000000;stroke-width:0.899999;stroke-linecap:round;stroke-dasharray:none;stroke-dashoffset:0;stroke-opacity:1"
       id="path71"
       d="m 259.99544,121.9091 c -0.40947,-0.3336 -0.7646,-0.72085 -1.1389,-1.09102 -0.0543,-0.0555 -0.10852,-0.11095 -0.16279,-0.16643 0,0 -3.63732,-1.51443 -3.63732,-1.51443 v 0 c 0.0542,0.057 0.10837,0.11404 0.16256,0.17106 0.11528,0.11987 0.24853,0.22165 0.36283,0.34245 0.24293,0.25675 0.44616,0.55333 0.75605,0.74335 z" /></g></svg>
