<?xml version="1.0" encoding="UTF-8" standalone="no"?>
<!-- Created with Inkscape (http://www.inkscape.org/) -->

<svg
   width="175.1187mm"
   height="162.34868mm"
   viewBox="0 0 175.11871 162.34871"
   version="1.1"
   id="svg1"
   xml:space="preserve"
   inkscape:version="1.4.2 (f4327f4, 2025-05-13)"
   sodipodi:docname="CavePaint1.svg"
   xmlns:inkscape="http://www.inkscape.org/namespaces/inkscape"
   xmlns:sodipodi="http://sodipodi.sourceforge.net/DTD/sodipodi-0.dtd"
   xmlns="http://www.w3.org/2000/svg"
   xmlns:svg="http://www.w3.org/2000/svg"><sodipodi:namedview
     id="namedview1"
     pagecolor="#ffffff"
     bordercolor="#000000"
     borderopacity="0.25"
     inkscape:showpageshadow="2"
     inkscape:pageopacity="0.0"
     inkscape:pagecheckerboard="0"
     inkscape:deskcolor="#d1d1d1"
     inkscape:document-units="mm"
     showgrid="true"
     showguides="false"
     inkscape:zoom="1.3950758"
     inkscape:cx="378.11567"
     inkscape:cy="449.79636"
     inkscape:window-width="1920"
     inkscape:window-height="1001"
     inkscape:window-x="-9"
     inkscape:window-y="-9"
     inkscape:window-maximized="1"
     inkscape:current-layer="layer1"><sodipodi:guide
       position="34.641016,-18.049413"
       orientation="0,522.71998"
       id="guide2"
       inkscape:locked="false" /><sodipodi:guide
       position="172.94402,-18.049413"
       orientation="378.23999,0"
       id="guide3"
       inkscape:locked="false" /><sodipodi:guide
       position="172.94402,-118.12541"
       orientation="0,-522.71998"
       id="guide4"
       inkscape:locked="false" /><sodipodi:guide
       position="34.641016,-118.12541"
       orientation="-378.23999,0"
       id="guide5"
       inkscape:locked="false" /><sodipodi:guide
       position="34.641016,-18.049413"
       orientation="0,522.71998"
       id="guide6"
       inkscape:locked="false" /><sodipodi:guide
       position="172.94402,-18.049413"
       orientation="378.23999,0"
       id="guide7"
       inkscape:locked="false" /><sodipodi:guide
       position="172.94402,-118.12541"
       orientation="0,-522.71998"
       id="guide8"
       inkscape:locked="false" /><sodipodi:guide
       position="34.641016,-118.12541"
       orientation="-378.23999,0"
       id="guide9"
       inkscape:locked="false" /><inkscape:grid
       type="axonomgrid"
       id="grid9"
       units="mm"
       originx="35.641014"
       originy="31.154702"
       spacingx="0.99999998"
       spacingy="4"
       empcolor="#0099e5"
       empopacity="0.30196078"
       color="#0099e5"
       opacity="0.14901961"
       empspacing="5"
       dotted="false"
       gridanglex="30"
       gridanglez="30"
       enabled="true"
       visible="true" /></sodipodi:namedview><defs
     id="defs1"><clipPath
       clipPathUnits="userSpaceOnUse"
       id="clipPath27"><rect
         style="fill:none;stroke:#000000;stroke-width:0.999999;stroke-linecap:butt;stroke-linejoin:bevel;paint-order:stroke markers fill;stop-color:#000000"
         id="rect28-6"
         width="46.160622"
         height="39.922417"
         x="86.574379"
         y="420.06253" /></clipPath><clipPath
       clipPathUnits="userSpaceOnUse"
       id="clipPath5"><path
         id="path5"
         style="stroke-width:0.1;stroke-linecap:square;paint-order:markers fill stroke;stop-color:#000000"
         d="M 438.25066,553.76374 H 1298.1212 V 755.15928 H 438.25066 Z"
         sodipodi:nodetypes="ccccc" /></clipPath></defs><g
     inkscape:label="Layer 1"
     inkscape:groupmode="layer"
     id="layer1"
     transform="translate(33.949188,29.543917)"><path
       sodipodi:type="star"
       style="fill:#ffffff;fill-opacity:0;stroke:#000000;stroke-width:2;stroke-dasharray:6, 6;stroke-dashoffset:0;stroke-opacity:1"
       id="path10-2-7-54"
       inkscape:flatsided="true"
       sodipodi:sides="6"
       sodipodi:cx="19.012333"
       sodipodi:cy="51.610779"
       sodipodi:r1="19.999998"
       sodipodi:r2="17.320507"
       sodipodi:arg1="-1.5707963"
       sodipodi:arg2="-1.0471976"
       inkscape:rounded="0"
       inkscape:randomized="0"
       d="m 19.012333,31.610781 17.320507,9.999999 -10e-7,19.999998 -17.320507,9.999999 -17.3205058,-10 6e-7,-19.999998 z"
       transform="translate(17.3205,-30)" /><path
       sodipodi:type="star"
       style="fill:#ffffff;fill-opacity:0;stroke:#000000;stroke-width:2;stroke-dasharray:none;stroke-dashoffset:0;stroke-opacity:1"
       id="path10-2-7-54-6"
       inkscape:flatsided="true"
       sodipodi:sides="6"
       sodipodi:cx="19.012333"
       sodipodi:cy="51.610779"
       sodipodi:r1="19.999998"
       sodipodi:r2="17.320507"
       sodipodi:arg1="-1.5707963"
       sodipodi:arg2="-1.0471976"
       inkscape:rounded="0"
       inkscape:randomized="0"
       d="m 19.012333,31.610781 17.320507,9.999999 -10e-7,19.999998 -17.320507,9.999999 -17.3205058,-10 6e-7,-19.999998 z"
       transform="translate(34.641007,-59.999997)" /><path
       sodipodi:type="star"
       style="fill:#ffffff;fill-opacity:0;stroke:#000000;stroke-width:2;stroke-dasharray:6, 6;stroke-dashoffset:0;stroke-opacity:1"
       id="path10-2-7-54-5"
       inkscape:flatsided="true"
       sodipodi:sides="6"
       sodipodi:cx="19.012333"
       sodipodi:cy="51.610779"
       sodipodi:r1="19.999998"
       sodipodi:r2="17.320507"
       sodipodi:arg1="-1.5707963"
       sodipodi:arg2="-1.0471976"
       inkscape:rounded="0"
       inkscape:randomized="0"
       d="m 19.012333,31.610781 17.320507,9.999999 -10e-7,19.999998 -17.320507,9.999999 -17.3205058,-10 6e-7,-19.999998 z"
       transform="translate(-17.320507,29.999997)" /><path
       sodipodi:type="star"
       style="fill:#ffffff;fill-opacity:0;stroke:#000000;stroke-width:2;stroke-dasharray:6, 6;stroke-dashoffset:0;stroke-opacity:1"
       id="path10-2-7-54-7-0"
       inkscape:flatsided="true"
       sodipodi:sides="6"
       sodipodi:cx="19.012333"
       sodipodi:cy="51.610779"
       sodipodi:r1="19.999998"
       sodipodi:r2="17.320507"
       sodipodi:arg1="-1.5707963"
       sodipodi:arg2="-1.0471976"
       inkscape:rounded="0"
       inkscape:randomized="0"
       d="m 19.012333,31.610781 17.320507,9.999999 -10e-7,19.999998 -17.320507,9.999999 -17.3205058,-10 5e-7,-19.999998 z" /><path
       sodipodi:type="star"
       style="fill:#ffffff;fill-opacity:0;stroke:#000000;stroke-width:2;stroke-dasharray:6, 6;stroke-dashoffset:0;stroke-opacity:1"
       id="path10-2-7-54-8"
       inkscape:flatsided="true"
       sodipodi:sides="6"
       sodipodi:cx="19.012333"
       sodipodi:cy="51.610779"
       sodipodi:r1="19.999998"
       sodipodi:r2="17.320507"
       sodipodi:arg1="-1.5707963"
       sodipodi:arg2="-1.0471976"
       inkscape:rounded="0"
       inkscape:randomized="0"
       d="m 19.012333,31.610781 17.320507,9.999999 -10e-7,19.999998 -17.320507,9.999999 -17.3205058,-10 6e-7,-19.999998 z"
       transform="matrix(-1,0,0,1,89.899674,-29.756562)" /><path
       sodipodi:type="star"
       style="fill:#ffffff;fill-opacity:0;stroke:#000000;stroke-width:2;stroke-dasharray:none;stroke-dashoffset:0;stroke-opacity:1"
       id="path10-2-7-54-9"
       inkscape:flatsided="true"
       sodipodi:sides="6"
       sodipodi:cx="19.012333"
       sodipodi:cy="51.610779"
       sodipodi:r1="19.999998"
       sodipodi:r2="17.320507"
       sodipodi:arg1="-1.5707963"
       sodipodi:arg2="-1.0471976"
       inkscape:rounded="0"
       inkscape:randomized="0"
       d="m 19.012333,31.610781 17.320507,9.999999 -10e-7,19.999998 -17.320507,9.999999 -17.3205058,-10 6e-7,-19.999998 z"
       transform="translate(-34.641014,59.999982)" /><path
       sodipodi:type="star"
       style="fill:#ffffff;fill-opacity:0;stroke:#000000;stroke-width:2;stroke-dasharray:6, 6;stroke-dashoffset:0;stroke-opacity:1"
       id="path10-2-7-54-8-8"
       inkscape:flatsided="true"
       sodipodi:sides="6"
       sodipodi:cx="19.012333"
       sodipodi:cy="51.610779"
       sodipodi:r1="19.999998"
       sodipodi:r2="17.320507"
       sodipodi:arg1="-1.5707963"
       sodipodi:arg2="-1.0471976"
       inkscape:rounded="0"
       inkscape:randomized="0"
       d="m 19.012333,31.610781 17.320507,9.999999 -10e-7,19.999998 -17.320507,9.999999 -17.3205058,-10 6e-7,-19.999998 z"
       transform="matrix(-1,0,0,1,37.93816,60.24342)" /><path
       sodipodi:type="star"
       style="fill:#ffffff;fill-opacity:0;stroke:#000000;stroke-width:2;stroke-dasharray:6, 6;stroke-dashoffset:0;stroke-opacity:1"
       id="path10-2-7-54-7"
       inkscape:flatsided="true"
       sodipodi:sides="6"
       sodipodi:cx="19.012333"
       sodipodi:cy="51.610779"
       sodipodi:r1="19.999998"
       sodipodi:r2="17.320507"
       sodipodi:arg1="-1.5707963"
       sodipodi:arg2="-1.0471976"
       inkscape:rounded="0"
       inkscape:randomized="0"
       d="m 19.012333,31.610781 17.320507,9.999999 -10e-7,19.999998 -17.320507,9.999999 -17.3205058,-10 6e-7,-19.999998 z"
       transform="translate(34.641007,59.999985)" /><path
       sodipodi:type="star"
       style="fill:#ffffff;fill-opacity:0;stroke:#000000;stroke-width:2;stroke-dasharray:6, 6;stroke-dashoffset:0;stroke-opacity:1"
       id="path10-2-7-54-8-83"
       inkscape:flatsided="true"
       sodipodi:sides="6"
       sodipodi:cx="19.012333"
       sodipodi:cy="51.610779"
       sodipodi:r1="19.999998"
       sodipodi:r2="17.320507"
       sodipodi:arg1="-1.5707963"
       sodipodi:arg2="-1.0471976"
       inkscape:rounded="0"
       inkscape:randomized="0"
       d="m 19.012333,31.610781 17.320507,9.999999 -10e-7,19.999998 -17.320507,9.999999 -17.3205058,-10 6e-7,-19.999998 z"
       transform="matrix(-1,0,0,1,107.22019,60.243423)" /><path
       sodipodi:type="star"
       style="fill:#ffffff;fill-opacity:0;stroke:#000000;stroke-width:2;stroke-dasharray:none;stroke-dashoffset:0;stroke-opacity:1"
       id="path10-2-7-54-8-83-0"
       inkscape:flatsided="true"
       sodipodi:sides="6"
       sodipodi:cx="19.012333"
       sodipodi:cy="51.610779"
       sodipodi:r1="19.999998"
       sodipodi:r2="17.320507"
       sodipodi:arg1="-1.5707963"
       sodipodi:arg2="-1.0471976"
       inkscape:rounded="0"
       inkscape:randomized="0"
       d="m 19.012333,31.610781 17.320507,9.999999 -10e-7,19.999998 -17.320507,9.999999 -17.3205058,-10 6e-7,-19.999998 z"
       transform="matrix(-1,0,0,1,141.86134,60.039285)" /><path
       sodipodi:type="star"
       style="fill:#ffffff;fill-opacity:0;stroke:#000000;stroke-width:2;stroke-dasharray:6, 6;stroke-dashoffset:0;stroke-opacity:1"
       id="path10-2-7-54-5-9"
       inkscape:flatsided="true"
       sodipodi:sides="6"
       sodipodi:cx="19.012333"
       sodipodi:cy="51.610779"
       sodipodi:r1="19.999998"
       sodipodi:r2="17.320507"
       sodipodi:arg1="-1.5707963"
       sodipodi:arg2="-1.0471976"
       inkscape:rounded="0"
       inkscape:randomized="0"
       d="m 19.012333,31.610781 17.320507,9.999999 -10e-7,19.999998 -17.320507,9.999999 -17.3205058,-10 6e-7,-19.999998 z"
       transform="matrix(-1,0,0,1,124.54083,30.039288)" /><path
       sodipodi:type="star"
       style="fill:#ffffff;fill-opacity:0;stroke:#000000;stroke-width:2;stroke-dasharray:6, 6;stroke-dashoffset:0;stroke-opacity:1"
       id="path10-2-7-54-7-0-8"
       inkscape:flatsided="true"
       sodipodi:sides="6"
       sodipodi:cx="19.012333"
       sodipodi:cy="51.610779"
       sodipodi:r1="19.999998"
       sodipodi:r2="17.320507"
       sodipodi:arg1="-1.5707963"
       sodipodi:arg2="-1.0471976"
       inkscape:rounded="0"
       inkscape:randomized="0"
       d="m 19.012333,31.610781 17.320507,9.999999 -10e-7,19.999998 -17.320507,9.999999 -17.3205058,-10 6e-7,-19.999998 z"
       transform="matrix(-1,0,0,1,107.22023,0.24339646)" /><path
       style="fill:#000000;fill-opacity:1;stroke:#000000;stroke-width:0.899999;stroke-linecap:round;stroke-dasharray:none;stroke-dashoffset:0;stroke-opacity:1"
       id="path36"
       d="m -10.245969,104.19612 c -0.570505,-0.34325 -1.215143,-0.5067 -1.835124,-0.72979 -0.463635,-0.1738 -0.948844,-0.24936 -1.441034,-0.26805 -0.684519,-0.0685 -1.225038,0.075 -1.865988,0.30215 -0.678541,0.29464 -1.315463,0.65562 -1.902994,1.10406 -0.48927,0.40348 -0.932819,0.86035 -1.292054,1.38304 -0.06693,0.12666 -0.131737,0.25447 -0.200786,0.37998 -0.134216,0.24398 -0.292356,0.48832 -0.40465,0.74415 -0.199029,0.45343 -0.298546,0.92072 -0.387962,1.4045 -0.05677,0.66124 -0.182958,1.33156 -0.165462,1.99805 0.01083,0.41261 0.05914,0.53815 0.148499,0.93668 0.19333,0.63689 0.452146,1.27893 0.906939,1.77945 0.104666,0.11519 0.225121,0.21498 0.337682,0.32247 1.476838,1.056 0.799368,0.59115 4.10115,2.38601 0.142357,0.0774 0.306384,0.10557 0.459845,0.15757 0.459429,0.15568 0.918161,0.3128 1.379804,0.46178 0.849595,0.20763 1.69252,0.42241 2.4909654,0.78401 1.1722129,0.73434 3.041932,1.73313 -2.5623454,-1.45562 -0.07345,-0.0418 0.14141,0.0926 0.210822,0.14083 0.130946,0.091 0.258495,0.1867 0.388003,0.27968 0.49261,0.45032 0.718131,1.13617 0.936076,1.75243 0.180887,0.52115 0.241036,1.06767 0.268364,1.61507 0.02109,0.31753 0.03504,0.6299 -0.307138,0.73916 -0.178513,0.026 -0.358557,0.0348 -0.538494,0.0436 0,0 3.2148041,2.28823 3.2148041,2.28823 v 0 c 0.2210773,-0.0315 0.4407857,-0.0596 0.6403742,-0.16924 0.3853465,-0.27465 0.5555107,-0.65188 0.5093938,-1.12952 -0.025585,-0.58214 -0.075872,-1.16809 -0.2487877,-1.7277 -0.118068,-0.36325 -0.2538556,-0.70572 -0.4043413,-1.0563 -0.00533,-0.0124 -0.2545744,-0.62673 -0.2703997,-0.65736 -0.041344,-0.08 -0.098891,-0.15063 -0.1483362,-0.22595 -0.1744004,-0.16502 -0.3812969,-0.34309 -0.5882717,-0.46637 -1.3259855,-0.78981 -2.7197365,-1.70607 -4.1595415,-2.38366 -0.815802,-0.30896 -1.6626,-0.50896 -2.499276,-0.75192 -0.455335,-0.15042 -0.915331,-0.29632 -1.361189,-0.4735 -0.150087,-0.0596 -0.582333,-0.27679 -0.444775,-0.19216 0.505532,0.311 4.24191,2.48427 2.538043,1.49289 -0.116536,-0.0807 -0.243184,-0.14842 -0.349606,-0.24204 -0.09106,-0.0801 -0.161377,-0.18118 -0.238204,-0.27503 -0.336839,-0.41145 -0.589523,-0.85458 -0.757479,-1.36136 -0.08374,-0.28438 -0.175148,-0.53791 -0.197269,-0.83655 -0.04799,-0.64782 0.07861,-1.31011 0.128382,-1.95296 0.163228,-0.89242 0.427525,-1.60798 0.951834,-2.35711 0.352935,-0.47823 0.753797,-0.92182 1.230736,-1.28029 0.556406,-0.417 1.158084,-0.76761 1.814131,-1.00549 0.60941,-0.17698 1.179125,-0.2345 1.810818,-0.15279 0.4666799,0.0576 0.9213838,0.16653 1.3622347,0.33288 0.6368193,0.21021 1.2496628,0.46742 1.8461511,0.77481 z" /><path
       style="fill:#000000;fill-opacity:1;stroke:#000000;stroke-width:0.899999;stroke-linecap:round;stroke-dasharray:none;stroke-dashoffset:0;stroke-opacity:1"
       id="path37"
       d="m -21.299295,111.19889 c 0.02656,0.54741 -0.18141,1.05299 -0.359985,1.55895 -0.182112,0.41981 -0.51583,0.74742 -0.857338,1.04213 -0.500969,0.3069 -0.968608,0.67195 -1.482057,0.95774 -0.347365,0.23811 -0.752512,0.36356 -1.121197,0.55652 -0.381599,0.21505 -0.620038,0.55854 -0.824487,0.93393 -0.186699,0.37284 -0.240909,0.78334 -0.271139,1.19358 -0.02,0.38378 -0.01622,0.76827 -0.01493,1.15242 0,0 3.521406,1.79249 3.521406,1.79249 v 0 c -0.0017,-0.37685 -0.0059,-0.75379 0.0036,-1.13056 0.01495,-0.35451 0.03552,-0.71494 0.187145,-1.04216 0.167919,-0.31151 0.365267,-0.5766 0.699121,-0.72425 0.387279,-0.17534 0.768971,-0.36289 1.126648,-0.59437 0.507611,-0.33036 1.0053,-0.67755 1.506256,-1.01718 0.401304,-0.33634 0.760655,-0.72591 0.961893,-1.2174 0.19982,-0.54117 0.398413,-1.08654 0.452915,-1.66434 z" /><path
       style="fill:#000000;fill-opacity:1;stroke:#000000;stroke-width:0.899999;stroke-linecap:round;stroke-dasharray:none;stroke-dashoffset:0;stroke-opacity:1"
       id="path38"
       d="m 115.20821,103.84498 c -0.66325,0.20958 -1.2075,0.6446 -1.72516,1.09367 -0.35111,0.33093 -0.63881,0.67699 -0.79198,1.13731 -0.0978,0.37163 -0.0968,0.75805 -0.0987,1.13948 -0.0209,0.33606 0.11975,0.62193 0.24442,0.92087 0.0661,0.20114 0.0287,0.10186 0.11256,0.29777 0,0 3.64114,1.57 3.64114,1.57 v 0 c -0.13528,-0.0957 -0.078,-0.0359 -0.16907,-0.18184 -0.0739,-0.29225 -0.24602,-0.51903 -0.30788,-0.81235 -0.001,-0.34562 -0.0105,-0.69454 0.0475,-1.03653 0.10175,-0.39512 0.3639,-0.67979 0.64815,-0.96422 0.48469,-0.4218 1.00495,-0.80344 1.65225,-0.92018 z" /><path
       style="fill:#000000;fill-opacity:1;stroke:#000000;stroke-width:0.899999;stroke-linecap:round;stroke-dasharray:none;stroke-dashoffset:0;stroke-opacity:1"
       id="path39"
       d="m 127.16236,107.54933 c 0.50451,-0.43087 1.18455,-0.46337 1.81629,-0.4467 0.35349,0.0529 0.7399,-0.008 1.08165,0.11768 0.12441,0.0457 0.2353,0.12204 0.35407,0.18083 1.19712,0.8088 0.007,-0.001 -3.07334,-1.75361 -0.0463,-0.0263 0.0894,0.0586 0.12856,0.0947 0.10891,0.10041 0.20506,0.23145 0.29263,0.35041 0.10348,0.26967 0.33732,0.44057 0.46229,0.69565 0.0592,0.18752 0.0341,0.0906 0.0741,0.29115 0,0 3.55018,1.74767 3.55018,1.74767 v 0 c -0.0207,-0.23738 -0.007,-0.11972 -0.0395,-0.35299 -0.0875,-0.41545 -0.15959,-0.46488 -0.43548,-0.75819 -0.0694,-0.17918 -0.1494,-0.28426 -0.25957,-0.4368 -0.038,-0.0527 -0.0462,-0.13226 -0.10137,-0.16654 -3.0664,-1.90396 -2.28491,-1.57014 -3.70118,-2.15702 -0.48245,-0.16277 -0.99896,-0.14274 -1.50259,-0.14788 -0.72407,0.0413 -1.44984,0.19786 -2.0223,0.67314 z" /><path
       style="fill:#000000;fill-opacity:1;stroke:#000000;stroke-width:0.899999;stroke-linecap:round;stroke-dasharray:none;stroke-dashoffset:0;stroke-opacity:1"
       id="path40"
       d="m 121.42506,119.03105 c -0.0418,-0.96584 -0.0364,-1.93315 -0.0234,-2.89959 -0.0162,-1.07359 0.008,-1.21758 0.85434,-1.90255 0.96263,-0.6321 2.05588,-1.01566 3.17759,-1.24659 0.9421,-0.0392 1.79289,0.37434 2.58523,0.841 -5.94568,-3.2441 -3.20912,-2.19684 -2.38026,-1.1233 0.20869,0.2703 0.25616,0.38694 0.42357,0.69241 0.36339,0.83663 0.65738,1.70209 0.90634,2.57907 -0.006,0.10401 0.22255,0.54271 0.0518,0.64753 -0.0999,0.0613 -0.62465,0.0101 -0.71174,0.008 -0.75983,-0.0446 -1.5188,-0.0967 -2.27964,-0.12255 -0.66029,-0.0195 -1.321,-0.0255 -1.98156,-0.032 -0.5533,-0.0251 -1.10023,0.0114 -1.6387,0.14143 -0.44254,0.11085 -0.88882,0.17104 -1.32434,0.30486 -0.21538,0.0536 -0.10779,0.0306 -0.3227,0.0692 0,0 3.251,2.2554 3.251,2.2554 v 0 c 0.2261,-0.0589 0.11389,-0.0278 0.33664,-0.0933 0.42159,-0.11998 0.85901,-0.17845 1.28303,-0.29033 0.52944,-0.0831 1.05935,-0.0871 1.59443,-0.0755 0.65073,-0.002 1.30149,0.001 1.95183,0.0271 0.76497,0.0329 1.52871,0.0962 2.29455,0.10358 0.13274,-0.009 0.26734,-0.003 0.39821,-0.0264 0.70979,-0.12954 0.81273,-0.63905 0.61972,-1.24447 -0.25988,-0.8936 -0.57235,-1.77015 -0.88785,-2.64527 -0.146,-0.3373 -0.29915,-0.72174 -0.52725,-1.01626 -0.0628,-0.081 -0.14705,-0.14281 -0.21904,-0.21574 -1.28754,-1.30436 0.74821,0.33205 -3.87071,-2.38619 -0.86582,-0.4323 -1.77319,-0.77755 -2.75838,-0.6126 -1.13704,0.31821 -2.23705,0.77307 -3.23571,1.40844 -0.93662,0.72614 -1.12131,1.00933 -1.05066,2.19214 0.0127,0.95847 0.0191,1.91789 -0.0234,2.87573 z" /><path
       style="fill:#000000;fill-opacity:1;stroke:#000000;stroke-width:0.899999;stroke-linecap:round;stroke-dasharray:none;stroke-dashoffset:0;stroke-opacity:1"
       id="path46"
       d="m -15.940408,107.12235 c 0.41363,0.37049 0.757163,0.81025 1.17935,1.17059 0.30482,0.21908 0.615257,0.42807 0.916638,0.65201 0.206437,0.12053 0.385469,0.28734 0.592211,0.40688 1.202019,0.69498 2.409961,1.37966 3.6163494,2.06703 0.084126,0.0479 0.3390366,0.18717 0.2551438,0.13883 -1.0417332,-0.60026 -2.0858232,-1.19642 -3.1287342,-1.79463 1.464012,0.87529 2.8403601,2.2103 4.5830736,2.37997 0.4265745,0.0214 0.8543092,0.0144 1.2813467,0.0127 0.3969147,-0.002 0.7938346,-0.003 1.1907546,-0.004 0,0 -3.196953,-2.32144 -3.196953,-2.32144 v 0 c -0.3954563,0.002 -0.7909036,0.005 -1.1863588,0.006 -0.4161681,-2.1e-4 -0.8361601,0.007 -1.2471121,-0.0688 -0.18552,-0.0447 -0.358543,-0.096 -0.530158,-0.18176 -0.06186,-0.0309 -0.241531,-0.13483 -0.181774,-0.10002 3.3650209,1.96048 4.1886259,2.48326 2.9491795,1.70202 -1.1971255,-0.69718 -2.3923825,-1.39757 -3.5913765,-2.09152 -0.08487,-0.0491 -0.344717,-0.18703 -0.260029,-0.13759 1.037731,0.60583 2.082388,1.19976 3.1193643,1.80689 0.138249,0.0809 -0.2791288,-0.15871 -0.4084995,-0.2532 -0.05995,-0.0438 -0.1218718,-0.0848 -0.1828068,-0.1272 -0.322078,-0.19844 -0.603956,-0.44867 -0.924475,-0.64889 -0.483009,-0.27275 -0.803512,-0.70918 -1.187559,-1.09965 z" /><path
       style="fill:#000000;fill-opacity:1;stroke:#000000;stroke-width:0.899999;stroke-linecap:round;stroke-dasharray:none;stroke-dashoffset:0;stroke-opacity:1"
       id="path47"
       d="m -19.778544,105.65453 c -0.625376,-0.0103 -1.243362,0.0363 -1.858589,0.14789 -0.656524,0.12341 -1.321537,0.1892 -1.988101,0.22336 -0.292341,-0.0119 -0.59352,0.0453 -0.885407,0.0144 -0.125493,-0.0133 -0.246434,-0.0545 -0.369948,-0.0804 -0.182881,-0.0744 -0.363421,-0.13753 -0.53881,-0.22878 -0.06742,-0.0351 -0.267639,-0.14407 -0.201738,-0.10622 3.392649,1.94862 4.198949,2.47155 2.984943,1.69143 -0.305324,-0.19436 -0.583291,-0.4158 -0.853594,-0.65503 0,0 -3.674638,-1.45679 -3.674638,-1.45679 v 0 c 0.316985,0.18941 0.522977,0.5051 0.867318,0.6566 1.301939,1.11983 2.885302,2.08594 4.574772,2.47119 0.430038,0.0493 0.863388,0.0104 1.293989,-0.0182 0.665751,-0.0607 1.327442,-0.15471 1.987084,-0.26291 0.62018,-0.0768 1.241234,-0.10192 1.865895,-0.0692 z" /><path
       style="fill:#000000;fill-opacity:1;stroke:#000000;stroke-width:0.899999;stroke-linecap:round;stroke-dasharray:none;stroke-dashoffset:0;stroke-opacity:1"
       id="path48"
       d="m -4.3809981,104.59315 c -1.5496593,-1.22865 -3.2760639,-2.38483 -5.2208165,-2.82183 -0.4738084,-0.0958 -0.9574674,-0.10493 -1.4388994,-0.10613 -0.480788,0.0778 -0.645783,0.55076 -0.724838,0.97266 -0.06361,0.4233 -0.06476,0.84463 0.08928,1.24682 0.830624,1.36113 3.2853488,2.2094 4.1611588,2.70646 0.059236,0.01 0.1203463,0.0123 0.1777079,0.0301 0.049821,0.0155 0.093681,0.046 0.1405203,0.069 0.049197,0.0173 0.09752,0.0374 0.1475898,0.052 0.1778371,0.0519 0.3622305,0.0572 0.5456555,0.0722 0.2586408,0.0122 0.5468911,0.0506 0.7952423,-0.0524 0.1329743,-0.0552 0.2469329,-0.14811 0.3714564,-0.22037 0.349168,-0.25251 0.559226,-0.62049 0.7011009,-1.01854 0.080917,-0.25733 0.1054735,-0.52554 0.1257406,-0.79289 0,0 -3.5098707,-1.815 -3.5098707,-1.815 v 0 c -0.010165,0.23504 -0.020212,0.47159 -0.077489,0.70101 -0.095558,0.31138 -0.2524516,0.59686 -0.5456213,0.76191 -0.3294827,0.15778 -0.6683195,0.13398 -1.0233528,0.0708 -0.3276899,-0.0657 -0.6418897,-0.18911 -0.9493597,-0.31614 1.0804208,0.62549 2.1643123,1.24502 3.2412639,1.87646 0.048024,0.0282 -0.1046375,-0.0392 -0.1534322,-0.066 -0.2019395,-0.11094 -0.357827,-0.30366 -0.5342636,-0.44735 -0.2508244,-0.28877 -0.2633652,-0.63892 -0.2158338,-1.00858 0.043996,-0.32253 0.052229,-0.52181 0.4284263,-0.49682 0.4576196,0.0118 0.916251,0.0429 1.3599017,0.16504 0.2508064,0.0746 0.3554941,0.0983 0.6012127,0.2033 0.1091353,0.0466 0.4233994,0.21391 0.3213788,0.15326 -5.3520148,-3.1816 -3.6283458,-2.1135 -2.463849,-1.43081 z" /><path
       style="fill:#000000;fill-opacity:1;stroke:#000000;stroke-width:0.899999;stroke-linecap:round;stroke-dasharray:none;stroke-dashoffset:0;stroke-opacity:1"
       id="path56"
       d="m 52.969883,5.5236189 c -0.02926,-0.5037746 0.191696,-0.9265814 0.432322,-1.3508619 0.223284,-0.3918506 0.58875,-0.6281076 0.917723,-0.9167813 0.294428,-0.2248244 0.558964,-0.4877673 0.865005,-0.6978861 0.420309,-0.1841739 0.699749,-0.546571 0.968756,-0.9027716 0.331536,-0.4567767 0.710446,-0.8799433 0.963827,-1.3871469 0.180826,-0.41096141 0.210224,-0.85578684 0.197918,-1.2984189 -0.05727,-0.4470585 -0.238524,-0.873252 -0.532066,-1.2148846 -1.178168,-0.6831198 -2.356173,-1.366524 -3.534505,-2.0493641 -0.09357,-0.054221 -0.386332,-0.1939946 -0.292804,-0.1397047 1.086284,0.6305582 4.312875,2.5720108 3.271372,1.8699469 -2.567146,-1.7304885 -2.265424,-1.619831 -3.65619,-2.080251 -0.155795,-0.061058 -0.332367,-0.029168 -0.491048,-0.065997 -0.132342,-0.030716 -0.279358,-0.152867 -0.438187,-0.2097183 -0.30425,-0.2675379 -0.70888,-0.258705 -1.066173,-0.3877548 -0.428792,-0.2101659 -0.900218,-0.303349 -1.341729,-0.4912368 -0.44591,-0.1415788 -0.885507,-0.3043674 -1.294585,-0.5337677 -0.09668,-0.054216 -0.380415,-0.2276779 -0.284138,-0.1727502 1.029422,0.5873007 2.055783,1.1799515 3.083673,1.7699273 -0.463272,-0.2932271 -0.810683,-0.7206192 -1.163775,-1.1317867 -0.2678,-0.3564832 -0.511206,-0.7292255 -0.728578,-1.1183257 -0.229743,-0.3348083 -0.363899,-0.7143512 -0.475337,-1.1013197 -0.103206,-0.3849968 -0.12827,-0.7831269 -0.142721,-1.1795236 -0.0093,-0.3798099 -0.0067,-0.7597825 -0.0058,-1.1396695 -0.02564,-0.400409 0.0123,-0.7908 0.07181,-1.185471 0.126955,-0.413838 0.335053,-0.798094 0.517107,-1.190064 0.193315,-0.306033 0.415195,-0.596251 0.709062,-0.810936 0.236144,-0.234921 0.548974,-0.352768 0.824815,-0.528537 0.296574,-0.269197 0.668753,-0.339721 1.052753,-0.389317 0.342186,-0.06672 0.649799,-0.222376 0.979117,-0.324673 0.04744,-0.01 0.09656,-0.01397 0.142315,-0.02998 0.327485,-0.114595 -0.01961,-0.03274 0.285255,-0.126968 0.162179,-0.05013 0.338566,-0.06369 0.506111,-0.08299 0.37498,-0.09221 0.741359,-0.224909 1.090697,-0.38987 0.335687,-0.207132 0.59074,-0.489851 0.845899,-0.783238 0.310759,-0.296847 0.497216,-0.682452 0.704866,-1.051409 0.238125,-0.420469 0.327464,-0.897571 0.386988,-1.37112 0.03012,-0.275366 0.03675,-0.552363 0.04217,-0.829054 0,0 -3.517003,-1.79722 -3.517003,-1.79722 v 0 c -0.0011,0.266223 -0.0019,0.532671 -0.02008,0.798413 -0.03661,0.422673 -0.0926,0.851618 -0.310208,1.224749 -0.204203,0.342414 -0.360569,0.713202 -0.667774,0.982132 -0.22131,0.24645 -0.446098,0.494221 -0.754901,0.633731 -0.337084,0.127863 -0.66939,0.271937 -1.032182,0.310577 -0.339294,0.06572 -0.657735,0.182645 -0.983789,0.294098 -0.302358,0.118626 -0.609968,0.220707 -0.930426,0.280198 -0.41546,0.09338 -0.800029,0.239314 -1.141019,0.50137 -0.301675,0.165537 -0.600027,0.339493 -0.851013,0.578306 -0.317569,0.276599 -0.584026,0.604074 -0.794182,0.969698 -0.198916,0.424939 -0.406143,0.846831 -0.573225,1.28547 -0.06741,0.411423 -0.132442,0.817869 -0.103452,1.237258 -0.0011,0.383784 -0.0034,0.767596 0.0013,1.151362 0.009,0.422066 0.02498,0.845888 0.109961,1.2608113 0.09407,0.4167516 0.20492,0.841475 0.425675,1.21071 0.255132,0.3712057 0.425704,0.8002149 0.722749,1.1453379 0.288959,0.4757885 0.73415,0.8818639 1.124482,1.2753041 1.774253,1.0362951 3.323116,2.1440647 5.2334,2.7799143 0.460878,0.1624396 0.92451,0.3163761 1.383572,0.4817089 0.373576,0.085855 0.698482,0.2607522 1.043803,0.4203277 0.300881,0.1364191 0.635396,0.1316937 0.925433,0.2973493 1.028081,0.6365848 -4.216961,-2.3668424 -3.141716,-1.8136425 1.204228,0.6195578 2.348564,1.3491876 3.523443,2.02274 0.09183,0.052644 0.372076,0.2018427 0.280932,0.1480212 -1.072904,-0.633566 -2.149525,-1.2608137 -3.224289,-1.8912221 0.379143,0.1780995 0.547688,0.5352817 0.675653,0.920495 0.05471,0.3715067 0.01778,0.7576502 -0.101788,1.1142979 -0.21981,0.4872937 -0.576804,0.89684493 -0.898993,1.31863838 -0.275376,0.31839958 -0.559149,0.60426334 -0.937334,0.80060799 C 51.546559,0.67290418 51.260441,0.92259676 50.972042,1.1707283 50.604608,1.4825768 50.231982,1.77782 49.994272,2.209628 49.725754,2.6870924 49.479618,3.169531 49.44192,3.7261164 Z" /><path
       style="fill:#000000;fill-opacity:1;stroke:#000000;stroke-width:0.899999;stroke-linecap:round;stroke-dasharray:none;stroke-dashoffset:0;stroke-opacity:1"
       id="path57"
       d="m 56.969471,2.7214459 c 0.57532,-0.01651 1.15104,-0.00929 1.726509,-0.00587 0.08094,5.292e-4 0.161872,0.00106 0.242805,0.00132 0,0 -3.186189,-2.31490304 -3.186189,-2.31490304 v 0 c -0.07964,5.2917e-4 -0.159292,0.001058 -0.238937,0.001323 -0.580861,0.003493 -1.161944,0.0103452 -1.74267,-0.005874 z" /><path
       style="fill:#000000;fill-opacity:1;stroke:#000000;stroke-width:0.899999;stroke-linecap:round;stroke-dasharray:none;stroke-dashoffset:0;stroke-opacity:1"
       id="path58"
       d="m 58.845684,-1.4492605 c 0.331229,-0.00886 0.155509,-0.00508 0.527172,-0.01061 0,0 -3.173976,-2.3060298 -3.173976,-2.3060298 v 0 c -0.389396,-0.00555 -0.203941,-0.00183 -0.556372,-0.010607 z" /><path
       style="fill:#000000;fill-opacity:1;stroke:#000000;stroke-width:0.899999;stroke-linecap:round;stroke-dasharray:none;stroke-dashoffset:0;stroke-opacity:1"
       id="path59"
       d="m 55.056091,-4.1487952 c -0.01794,-0.3620018 -0.01458,-0.7246149 -0.01344,-1.0869244 0,0 -3.500942,-1.7838187 -3.500942,-1.7838187 v 0 c 0.0011,0.3577426 0.0048,0.715818 -0.01342,1.0732391 z" /><path
       style="fill:#000000;fill-opacity:1;stroke:#000000;stroke-width:0.899999;stroke-linecap:round;stroke-dasharray:none;stroke-dashoffset:0;stroke-opacity:1"
       id="path60"
       d="m 50.342291,-7.9883853 c 0.343736,-0.1087816 0.699725,-0.1668614 1.055362,-0.219742 0,0 -3.215916,-2.2558177 -3.215916,-2.2558177 v 0 c -0.37058,0.06908 -0.739251,0.146801 -1.104802,0.239269 z" /><path
       style="fill:#000000;fill-opacity:1;stroke:#000000;stroke-width:0.899999;stroke-linecap:round;stroke-dasharray:none;stroke-dashoffset:0;stroke-opacity:1"
       id="path61"
       d="m 49.084554,-16.199605 c 0.166224,0.529604 0.425304,1.021418 0.733258,1.481057 0.153646,0.254687 0.378958,0.445044 0.594448,0.643948 0,0 3.666595,1.469809 3.666595,1.469809 v 0 c -0.231955,-0.156876 -0.446471,-0.342932 -0.648123,-0.536493 -0.295823,-0.430678 -0.626102,-0.847468 -0.771194,-1.360376 z" /><path
       style="fill:#000000;fill-opacity:1;stroke:#000000;stroke-width:0.899999;stroke-linecap:round;stroke-dasharray:none;stroke-dashoffset:0;stroke-opacity:1"
       id="path62"
       d="m 53.671508,-17.846703 c 0.0722,0.04616 0.144412,0.09232 0.216617,0.138487 0,0 3.673933,1.415782 3.673933,1.415782 v 0 c -0.06818,-0.03735 -0.136361,-0.07469 -0.204542,-0.112037 z" /><path
       style="fill:#000000;fill-opacity:1;stroke:#000000;stroke-width:0.899999;stroke-linecap:round;stroke-dasharray:none;stroke-dashoffset:0;stroke-opacity:1"
       id="path63"
       d="m 50.661201,-19.469796 c 7.744682,4.551255 -0.07353,-0.23872 -1.089097,-0.605043 0,0 3.081216,2.442113 3.081216,2.442113 v 0 c 1.263793,0.680216 0.757748,0.411009 -2.90477,-1.693956 -0.146675,-0.0843 0.286427,0.180247 0.432884,0.264918 1.191075,0.68859 2.381973,1.377487 3.57296,2.06623 z" /><path
       style="fill:#000000;fill-opacity:1;stroke:#000000;stroke-width:0.899999;stroke-linecap:round;stroke-dasharray:none;stroke-dashoffset:0;stroke-opacity:1"
       id="path64"
       d="m 46.299132,-17.193934 c -1.316292,-0.688431 -3.576209,-2.007859 2.195041,1.300236 0,0 -3.671194,-1.413817 -3.671194,-1.413817 v 0 c 1.51811,0.873698 3.015385,1.780639 4.569346,2.587843 z" /><path
       style="fill:#000000;fill-opacity:1;stroke:#000000;stroke-width:0.899999;stroke-linecap:round;stroke-dasharray:none;stroke-dashoffset:0;stroke-opacity:1"
       id="path65"
       d="m 42.997317,-13.069608 c -0.543372,0.01405 -1.087117,0.01001 -1.63064,0.009 -0.08838,-3.44e-4 -0.176768,-7.14e-4 -0.265152,-0.0011 0,0 3.181466,2.31147 3.181466,2.31147 v 0 c 0.08741,-3.43e-4 0.174815,-7.14e-4 0.262223,-0.0011 0.551741,-0.0011 1.103678,-0.0048 1.655278,0.009 z" /><path
       style="fill:#000000;fill-opacity:1;stroke:#000000;stroke-width:0.899999;stroke-linecap:round;stroke-dasharray:none;stroke-dashoffset:0;stroke-opacity:1"
       id="path66"
       d="m 43.727186,-7.8187943 c -0.03331,0.058852 -0.06662,0.1177039 -0.09993,0.1765557 0,0 3.408764,1.9825906 3.408764,1.9825906 v 0 c 0.04444,-0.06641 0.08889,-0.1328193 0.133334,-0.1992289 z" /><path
       style="fill:#000000;fill-opacity:1;stroke:#000000;stroke-width:0.899999;stroke-linecap:round;stroke-dasharray:none;stroke-dashoffset:0;stroke-opacity:1"
       id="path67"
       d="m 47.545531,-5.0597294 c 0.01466,0.269997 0.01355,0.5404683 0.01431,0.8107458 0,0 3.499178,1.7829188 3.499178,1.7829188 v 0 c 7.94e-4,-0.2654115 -5.29e-4,-0.5310425 0.01431,-0.7961603 z" /><path
       style="fill:#000000;fill-opacity:1;stroke:#000000;stroke-width:0.899999;stroke-linecap:round;stroke-dasharray:none;stroke-dashoffset:0;stroke-opacity:1"
       id="path68"
       d="m 51.894929,-2.2136152 c -0.321895,0.049123 -0.154096,0.026167 -0.503581,0.067551 0,0 3.20453,2.27261738 3.20453,2.27261738 v 0 c 0.366479,-0.04096015 0.188277,-0.0213783 0.53459,-0.05884863 z" /><path
       style="fill:#000000;fill-opacity:1;stroke:#000000;stroke-width:0.899999;stroke-linecap:round;stroke-dasharray:none;stroke-dashoffset:0;stroke-opacity:1"
       id="path69"
       d="m 47.738698,1.9131518 c -0.324448,0.00868 -0.155506,0.0055 -0.506833,0.00889 0,0 3.178669,2.3094394 3.178669,2.3094394 v 0 c 0.364366,0.00344 0.187257,2.646e-4 0.531339,0.00889 z" /><path
       style="fill:#000000;fill-opacity:1;stroke:#000000;stroke-width:0.899999;stroke-linecap:round;stroke-dasharray:none;stroke-dashoffset:0;stroke-opacity:1"
       id="path70"
       d="m 52.815084,-25.452017 c -0.570823,0.260039 -0.963253,0.663988 -1.240298,1.217941 -0.209772,0.483909 -0.23781,0.999949 -0.187471,1.517326 0.06056,0.539166 0.208659,1.045257 0.615934,1.41785 2.832857,1.743281 2.631255,2.041894 4.706316,2.032487 0.3972,0.01824 0.771358,-0.0071 1.136124,-0.171415 0.34196,-0.206317 0.542165,-0.544968 0.737629,-0.880416 0.214968,-0.380587 0.327414,-0.798395 0.396883,-1.226465 0.05755,-0.400505 0.08468,-0.792731 -0.05296,-1.177571 -0.03745,-0.05717 -0.06591,-0.121366 -0.112342,-0.171515 -0.04683,-0.05058 -0.103728,-0.09231 -0.163579,-0.126496 -1.194887,-0.682567 -2.388632,-1.36766 -3.598812,-2.022728 -0.209127,-0.113199 -0.523664,-0.08925 -0.742516,-0.05003 -0.520108,0.247404 -0.754208,0.75443 -0.923523,1.274768 -0.09187,0.252645 -0.04667,0.126938 -0.135644,0.377112 0,0 3.458321,1.908135 3.458321,1.908135 v 0 c 0.0836,-0.254786 0.03939,-0.123403 0.133048,-0.394011 0.09937,-0.355921 0.235953,-0.815812 0.663155,-0.859067 0.2013,0.03333 0.220525,0.02836 0.422926,0.09832 0.07389,0.02554 0.284932,0.127195 0.217701,0.08728 -6.146167,-3.648713 -4.058052,-2.074902 -2.840979,-1.719083 0.283893,0.247709 0.213222,0.588531 0.182824,0.932821 -0.04588,0.381908 -0.125108,0.758336 -0.331903,1.08959 -0.148075,0.258881 -0.289306,0.537863 -0.588077,0.643118 -0.345466,0.08022 -0.69552,0.07065 -1.048853,0.06472 -1.722334,-0.04273 -2.968876,-1.14927 2.169721,1.712954 -0.53081,-0.183703 -0.700355,-0.550954 -0.782164,-1.090763 -0.04532,-0.449036 -0.07955,-0.892493 0.09121,-1.324475 0.225213,-0.489529 0.594794,-0.793995 1.109112,-0.966692 z" /><path
       style="fill:#000000;fill-opacity:1;stroke:#000000;stroke-width:0.899999;stroke-linecap:round;stroke-dasharray:none;stroke-dashoffset:0;stroke-opacity:1"
       id="path71"
       d="M 52.162719,1.8242994 C 51.753255,1.4906995 51.398116,1.1034501 51.023825,0.73327685 50.969559,0.67780166 50.915296,0.62232647 50.86103,0.56685129 c 0,0 -3.637322,-1.51443265 -3.637322,-1.51443265 v 0 c 0.05419,0.0570204 0.108376,0.11404335 0.162562,0.17106635 0.115279,0.11986683 0.248534,0.22164146 0.362834,0.34244491 0.242927,0.25674902 0.446156,0.55332841 0.756042,0.74335216 z" /></g></svg>
